<?xml version="1.0" standalone="no"?>
<!DOCTYPE svg PUBLIC "-//W3C//DTD SVG 20010904//EN"
 "http://www.w3.org/TR/2001/REC-SVG-20010904/DTD/svg10.dtd">
<svg version="1.0" xmlns="http://www.w3.org/2000/svg"
 width="32.000000pt" height="32.000000pt" viewBox="0 0 32.000000 32.000000"
 preserveAspectRatio="xMidYMid meet">

<g transform="translate(0.000000,32.000000) scale(0.100000,-0.100000)"
fill="#000000" stroke="none">
<path d="M0 160 l0 -160 160 0 160 0 0 160 0 160 -72 0 -72 0 30 -32 c28 -32
28 -32 2 -9 -20 18 -28 20 -28 10 0 -21 20 -39 43 -39 10 0 30 -8 43 -19 l24
-19 -60 -64 c-33 -36 -68 -76 -78 -88 -12 -15 -21 -19 -26 -12 -3 6 8 27 25
46 17 20 26 36 21 36 -6 0 -13 -6 -15 -12 -4 -10 -8 -9 -16 2 -10 13 -12 13
-21 0 -9 -13 -11 -13 -19 -1 -8 12 -12 12 -26 -3 -10 -9 -14 -20 -11 -24 4 -3
11 0 17 8 8 13 10 13 19 0 9 -13 11 -13 19 0 6 8 13 11 17 7 14 -13 -19 -37
-51 -37 -33 0 -45 13 -45 48 0 14 11 17 74 17 68 0 77 2 106 28 l32 29 -41 42
c-23 23 -41 51 -41 64 0 15 -6 22 -20 22 -14 0 -20 -7 -20 -22 0 -27 -67 -98
-86 -91 -8 3 -14 1 -14 -4 0 -5 43 -9 95 -8 131 0 129 -19 -2 -23 -103 -3
-103 -3 -103 21 0 28 28 57 56 57 24 0 44 18 44 39 0 10 -8 8 -27 -10 -27 -23
-27 -23 1 9 l30 32 -62 0 -62 0 0 -160z m163 83 c-7 -2 -19 -2 -25 0 -7 3 -2
5 12 5 14 0 19 -2 13 -5z m15 -30 c-16 -2 -40 -2 -55 0 -16 2 -3 4 27 4 30 0
43 -2 28 -4z m78 -118 c-5 -20 -13 -25 -37 -25 -26 0 -29 2 -19 14 6 8 19 12
27 9 12 -5 15 -2 11 9 -4 9 -1 21 5 27 15 15 21 -1 13 -34z"/>
<path d="M45 230 c-3 -5 1 -10 9 -10 8 0 18 5 21 10 3 6 -1 10 -9 10 -8 0 -18
-4 -21 -10z"/>
<path d="M225 230 c3 -5 13 -10 21 -10 8 0 12 -4 9 -10 -3 -5 -1 -10 4 -10 14
0 14 13 -1 28 -14 14 -42 16 -33 2z"/>
</g>
</svg>
